<?xml version="1.0" encoding="UTF-8" standalone="no"?>
<!DOCTYPE svg PUBLIC "-//W3C//DTD SVG 1.1//EN"
 "http://www.w3.org/Graphics/SVG/1.1/DTD/svg11.dtd">
<!-- Generated by graphviz version 12.2.1 (20241206.2353)
 -->
<!-- Title: G Pages: 1 -->
<svg width="892pt" height="2810pt"
 viewBox="0.00 0.00 892.17 2809.75" xmlns="http://www.w3.org/2000/svg" xmlns:xlink="http://www.w3.org/1999/xlink">
<g id="graph0" class="graph" transform="scale(1 1) rotate(0) translate(4 2805.75)">
<title>G</title>
<!-- 104 -->
<g id="node1" class="node">
<title>104</title>
<polygon fill="lemonchiffon" stroke="black" points="693.75,-2253.25 554.75,-2253.25 554.75,-2150.75 693.75,-2150.75 693.75,-2253.25"/>
<text text-anchor="start" x="562.75" y="-2235.95" font-family="arial" font-size="14.00">104: JUMPDEST</text>
<text text-anchor="start" x="562.75" y="-2220.2" font-family="arial" font-size="14.00">105: CALLVALUE</text>
<text text-anchor="start" x="562.75" y="-2204.45" font-family="arial" font-size="14.00">106: DUP1</text>
<text text-anchor="start" x="562.75" y="-2188.7" font-family="arial" font-size="14.00">107: ISZERO</text>
<text text-anchor="start" x="562.75" y="-2172.95" font-family="arial" font-size="14.00">108: PUSH2 0x0074</text>
<text text-anchor="start" x="562.75" y="-2157.2" font-family="arial" font-size="14.00">111: JUMPI</text>
</g>
<!-- 116 -->
<g id="node12" class="node">
<title>116</title>
<polygon fill="lemonchiffon" stroke="black" points="670.38,-1973.88 532.12,-1973.88 532.12,-1887.12 670.38,-1887.12 670.38,-1973.88"/>
<text text-anchor="start" x="540.12" y="-1956.58" font-family="arial" font-size="14.00">116: JUMPDEST</text>
<text text-anchor="start" x="540.12" y="-1940.83" font-family="arial" font-size="14.00">117: POP</text>
<text text-anchor="start" x="540.12" y="-1925.08" font-family="arial" font-size="14.00">118: PUSH2 0x007d</text>
<text text-anchor="start" x="540.12" y="-1909.33" font-family="arial" font-size="14.00">121: PUSH2 0x015f</text>
<text text-anchor="start" x="540.12" y="-1893.58" font-family="arial" font-size="14.00">124: JUMP</text>
</g>
<!-- 104&#45;&gt;116 -->
<g id="edge6" class="edge">
<title>104&#45;&gt;116</title>
<path fill="none" stroke="black" d="M619.92,-2150.31C615.91,-2103.26 609.95,-2033.45 605.85,-1985.4"/>
<polygon fill="black" stroke="black" points="609.34,-1985.16 605,-1975.49 602.37,-1985.75 609.34,-1985.16"/>
</g>
<!-- 112 -->
<g id="node13" class="node">
<title>112</title>
<polygon fill="lemonchiffon" stroke="crimson" points="811.88,-1992.12 688.62,-1992.12 688.62,-1868.88 811.88,-1868.88 811.88,-1992.12"/>
<polyline fill="none" stroke="crimson" points="700.62,-1992.12 688.62,-1980.12"/>
<polyline fill="none" stroke="crimson" points="688.62,-1880.88 700.62,-1868.88"/>
<polyline fill="none" stroke="crimson" points="799.88,-1868.88 811.88,-1880.88"/>
<polyline fill="none" stroke="crimson" points="811.88,-1980.12 799.88,-1992.12"/>
<text text-anchor="start" x="696.62" y="-1940.83" font-family="arial" font-size="14.00">112: PUSH1 0x00</text>
<text text-anchor="start" x="696.62" y="-1925.08" font-family="arial" font-size="14.00">114: DUP1</text>
<text text-anchor="start" x="696.62" y="-1909.33" font-family="arial" font-size="14.00">115: REVERT</text>
</g>
<!-- 104&#45;&gt;112 -->
<g id="edge9" class="edge">
<title>104&#45;&gt;112</title>
<path fill="none" stroke="black" d="M655.92,-2150.46C663.95,-2136.82 672.27,-2121.91 679.25,-2107.75 695.82,-2074.12 711.68,-2035.61 724.18,-2003.19"/>
<polygon fill="black" stroke="black" points="727.45,-2004.44 727.75,-1993.85 720.91,-2001.94 727.45,-2004.44"/>
</g>
<!-- 378 -->
<g id="node2" class="node">
<title>378</title>
<polygon fill="white" stroke="black" points="730.5,-933 464,-933 464,-232 730.5,-232 730.5,-933"/>
<text text-anchor="start" x="472" y="-915.7" font-family="arial" font-size="14.00">378: JUMPDEST</text>
<text text-anchor="start" x="472" y="-899.95" font-family="arial" font-size="14.00">379: PUSH1 0x01</text>
<text text-anchor="start" x="472" y="-884.2" font-family="arial" font-size="14.00">381: PUSH1 0x00</text>
<text text-anchor="start" x="472" y="-868.45" font-family="arial" font-size="14.00">383: DUP1</text>
<text text-anchor="start" x="472" y="-852.7" font-family="arial" font-size="14.00">384: PUSH2 0x0100</text>
<text text-anchor="start" x="472" y="-836.95" font-family="arial" font-size="14.00">387: EXP</text>
<text text-anchor="start" x="472" y="-821.2" font-family="arial" font-size="14.00">388: DUP2</text>
<text text-anchor="start" x="472" y="-805.45" font-family="arial" font-size="14.00">389: SLOAD</text>
<text text-anchor="start" x="472" y="-789.7" font-family="arial" font-size="14.00">390: DUP2</text>
<text text-anchor="start" x="472" y="-773.95" font-family="arial" font-size="14.00">391: PUSH1 0xff</text>
<text text-anchor="start" x="472" y="-758.2" font-family="arial" font-size="14.00">393: MUL</text>
<text text-anchor="start" x="472" y="-742.45" font-family="arial" font-size="14.00">394: NOT</text>
<text text-anchor="start" x="472" y="-726.7" font-family="arial" font-size="14.00">395: AND</text>
<text text-anchor="start" x="472" y="-710.95" font-family="arial" font-size="14.00">396: SWAP1</text>
<text text-anchor="start" x="472" y="-695.2" font-family="arial" font-size="14.00">397: DUP4</text>
<text text-anchor="start" x="472" y="-679.45" font-family="arial" font-size="14.00">398: ISZERO</text>
<text text-anchor="start" x="472" y="-663.7" font-family="arial" font-size="14.00">399: ISZERO</text>
<text text-anchor="start" x="472" y="-647.95" font-family="arial" font-size="14.00">400: MUL</text>
<text text-anchor="start" x="472" y="-632.2" font-family="arial" font-size="14.00">401: OR</text>
<text text-anchor="start" x="472" y="-616.45" font-family="arial" font-size="14.00">402: SWAP1</text>
<text text-anchor="start" x="472" y="-600.7" font-family="arial" font-size="14.00">403: SSTORE</text>
<text text-anchor="start" x="472" y="-584.95" font-family="arial" font-size="14.00">404: POP</text>
<text text-anchor="start" x="472" y="-569.2" font-family="arial" font-size="14.00">405: CALLER</text>
<text text-anchor="start" x="472" y="-553.45" font-family="arial" font-size="14.00">406: PUSH2 0x0101</text>
<text text-anchor="start" x="472" y="-537.7" font-family="arial" font-size="14.00">409: PUSH1 0x00</text>
<text text-anchor="start" x="472" y="-521.95" font-family="arial" font-size="14.00">411: PUSH2 0x0100</text>
<text text-anchor="start" x="472" y="-506.2" font-family="arial" font-size="14.00">414: EXP</text>
<text text-anchor="start" x="472" y="-490.45" font-family="arial" font-size="14.00">415: DUP2</text>
<text text-anchor="start" x="472" y="-474.7" font-family="arial" font-size="14.00">416: SLOAD</text>
<text text-anchor="start" x="472" y="-458.95" font-family="arial" font-size="14.00">417: DUP2</text>
<text text-anchor="start" x="472" y="-443.2" font-family="arial" font-size="14.00">418: PUSH20 0xffffffffffffffffffffffffffffffffffffffff</text>
<text text-anchor="start" x="472" y="-427.45" font-family="arial" font-size="14.00">439: MUL</text>
<text text-anchor="start" x="472" y="-411.7" font-family="arial" font-size="14.00">440: NOT</text>
<text text-anchor="start" x="472" y="-395.95" font-family="arial" font-size="14.00">441: AND</text>
<text text-anchor="start" x="472" y="-380.2" font-family="arial" font-size="14.00">442: SWAP1</text>
<text text-anchor="start" x="472" y="-364.45" font-family="arial" font-size="14.00">443: DUP4</text>
<text text-anchor="start" x="472" y="-348.7" font-family="arial" font-size="14.00">444: PUSH20 0xffffffffffffffffffffffffffffffffffffffff</text>
<text text-anchor="start" x="472" y="-332.95" font-family="arial" font-size="14.00">465: AND</text>
<text text-anchor="start" x="472" y="-317.2" font-family="arial" font-size="14.00">466: MUL</text>
<text text-anchor="start" x="472" y="-301.45" font-family="arial" font-size="14.00">467: OR</text>
<text text-anchor="start" x="472" y="-285.7" font-family="arial" font-size="14.00">468: SWAP1</text>
<text text-anchor="start" x="472" y="-269.95" font-family="arial" font-size="14.00">469: SSTORE</text>
<text text-anchor="start" x="472" y="-254.2" font-family="arial" font-size="14.00">470: POP</text>
<text text-anchor="start" x="472" y="-238.45" font-family="arial" font-size="14.00">471: JUMP</text>
</g>
<!-- 125 -->
<g id="node9" class="node">
<title>125</title>
<polygon fill="lemonchiffon" stroke="crimson" points="632,-193.75 512.5,-193.75 512.5,-74.25 632,-74.25 632,-193.75"/>
<polyline fill="none" stroke="crimson" points="524.5,-193.75 512.5,-181.75"/>
<polyline fill="none" stroke="crimson" points="512.5,-86.25 524.5,-74.25"/>
<polyline fill="none" stroke="crimson" points="620,-74.25 632,-86.25"/>
<polyline fill="none" stroke="crimson" points="632,-181.75 620,-193.75"/>
<text text-anchor="start" x="520.5" y="-136.45" font-family="arial" font-size="14.00">125: JUMPDEST</text>
<text text-anchor="start" x="520.5" y="-120.7" font-family="arial" font-size="14.00">126: STOP</text>
</g>
<!-- 378&#45;&gt;125 -->
<g id="edge22" class="edge">
<title>378&#45;&gt;125</title>
<path fill="none" stroke="black" d="M577.66,-231.61C577.14,-222.41 576.65,-213.64 576.19,-205.4"/>
<polygon fill="black" stroke="black" points="579.7,-205.42 575.64,-195.63 572.71,-205.81 579.7,-205.42"/>
</g>
<!-- 13 -->
<g id="node3" class="node">
<title>13</title>
<polygon fill="lemonchiffon" stroke="black" points="788.25,-2631.75 244.25,-2631.75 244.25,-2434.75 788.25,-2434.75 788.25,-2631.75"/>
<text text-anchor="start" x="252.25" y="-2614.45" font-family="arial" font-size="14.00">13: PUSH1 0x00</text>
<text text-anchor="start" x="252.25" y="-2598.7" font-family="arial" font-size="14.00">15: CALLDATALOAD</text>
<text text-anchor="start" x="252.25" y="-2582.95" font-family="arial" font-size="14.00">16: PUSH29 0x0100000000000000000000000000000000000000000000000000000000</text>
<text text-anchor="start" x="252.25" y="-2567.2" font-family="arial" font-size="14.00">46: SWAP1</text>
<text text-anchor="start" x="252.25" y="-2551.45" font-family="arial" font-size="14.00">47: DIV</text>
<text text-anchor="start" x="252.25" y="-2535.7" font-family="arial" font-size="14.00">48: PUSH4 0xffffffff</text>
<text text-anchor="start" x="252.25" y="-2519.95" font-family="arial" font-size="14.00">53: AND</text>
<text text-anchor="start" x="252.25" y="-2504.2" font-family="arial" font-size="14.00">54: DUP1</text>
<text text-anchor="start" x="252.25" y="-2488.45" font-family="arial" font-size="14.00">55: PUSH4 0x3ccfd60b</text>
<text text-anchor="start" x="252.25" y="-2472.7" font-family="arial" font-size="14.00">60: EQ</text>
<text text-anchor="start" x="252.25" y="-2456.95" font-family="arial" font-size="14.00">61: PUSH2 0x0051</text>
<text text-anchor="start" x="252.25" y="-2441.2" font-family="arial" font-size="14.00">64: JUMPI</text>
</g>
<!-- 81 -->
<g id="node11" class="node">
<title>81</title>
<polygon fill="lemonchiffon" stroke="black" points="502,-2398.75 370.5,-2398.75 370.5,-2296.25 502,-2296.25 502,-2398.75"/>
<text text-anchor="start" x="378.5" y="-2381.45" font-family="arial" font-size="14.00">81: JUMPDEST</text>
<text text-anchor="start" x="378.5" y="-2365.7" font-family="arial" font-size="14.00">82: CALLVALUE</text>
<text text-anchor="start" x="378.5" y="-2349.95" font-family="arial" font-size="14.00">83: DUP1</text>
<text text-anchor="start" x="378.5" y="-2334.2" font-family="arial" font-size="14.00">84: ISZERO</text>
<text text-anchor="start" x="378.5" y="-2318.45" font-family="arial" font-size="14.00">85: PUSH2 0x005d</text>
<text text-anchor="start" x="378.5" y="-2302.7" font-family="arial" font-size="14.00">88: JUMPI</text>
</g>
<!-- 13&#45;&gt;81 -->
<g id="edge23" class="edge">
<title>13&#45;&gt;81</title>
<path fill="none" stroke="black" d="M473.67,-2434.46C469.99,-2425.99 466.33,-2417.6 462.83,-2409.56"/>
<polygon fill="black" stroke="black" points="466.14,-2408.38 458.94,-2400.61 459.72,-2411.18 466.14,-2408.38"/>
</g>
<!-- 65 -->
<g id="node15" class="node">
<title>65</title>
<polygon fill="lemonchiffon" stroke="black" points="702.38,-2390.88 546.12,-2390.88 546.12,-2304.12 702.38,-2304.12 702.38,-2390.88"/>
<text text-anchor="start" x="554.12" y="-2373.57" font-family="arial" font-size="14.00">65: DUP1</text>
<text text-anchor="start" x="554.12" y="-2357.82" font-family="arial" font-size="14.00">66: PUSH4 0x8129fc1c</text>
<text text-anchor="start" x="554.12" y="-2342.07" font-family="arial" font-size="14.00">71: EQ</text>
<text text-anchor="start" x="554.12" y="-2326.32" font-family="arial" font-size="14.00">72: PUSH2 0x0068</text>
<text text-anchor="start" x="554.12" y="-2310.57" font-family="arial" font-size="14.00">75: JUMPI</text>
</g>
<!-- 13&#45;&gt;65 -->
<g id="edge12" class="edge">
<title>13&#45;&gt;65</title>
<path fill="none" stroke="black" d="M573.73,-2434.46C580.52,-2422.9 587.24,-2411.46 593.46,-2400.89"/>
<polygon fill="black" stroke="black" points="596.43,-2402.74 598.48,-2392.34 590.4,-2399.19 596.43,-2402.74"/>
</g>
<!-- 127 -->
<g id="node4" class="node">
<title>127</title>
<polygon fill="white" stroke="black" points="408.5,-2107.75 142,-2107.75 142,-1753.25 408.5,-1753.25 408.5,-2107.75"/>
<text text-anchor="start" x="150" y="-2090.45" font-family="arial" font-size="14.00">127: JUMPDEST</text>
<text text-anchor="start" x="150" y="-2074.7" font-family="arial" font-size="14.00">128: PUSH2 0x0101</text>
<text text-anchor="start" x="150" y="-2058.95" font-family="arial" font-size="14.00">131: PUSH1 0x00</text>
<text text-anchor="start" x="150" y="-2043.2" font-family="arial" font-size="14.00">133: SWAP1</text>
<text text-anchor="start" x="150" y="-2027.45" font-family="arial" font-size="14.00">134: SLOAD</text>
<text text-anchor="start" x="150" y="-2011.7" font-family="arial" font-size="14.00">135: SWAP1</text>
<text text-anchor="start" x="150" y="-1995.95" font-family="arial" font-size="14.00">136: PUSH2 0x0100</text>
<text text-anchor="start" x="150" y="-1980.2" font-family="arial" font-size="14.00">139: EXP</text>
<text text-anchor="start" x="150" y="-1964.45" font-family="arial" font-size="14.00">140: SWAP1</text>
<text text-anchor="start" x="150" y="-1948.7" font-family="arial" font-size="14.00">141: DIV</text>
<text text-anchor="start" x="150" y="-1932.95" font-family="arial" font-size="14.00">142: PUSH20 0xffffffffffffffffffffffffffffffffffffffff</text>
<text text-anchor="start" x="150" y="-1917.2" font-family="arial" font-size="14.00">163: AND</text>
<text text-anchor="start" x="150" y="-1901.45" font-family="arial" font-size="14.00">164: PUSH20 0xffffffffffffffffffffffffffffffffffffffff</text>
<text text-anchor="start" x="150" y="-1885.7" font-family="arial" font-size="14.00">185: AND</text>
<text text-anchor="start" x="150" y="-1869.95" font-family="arial" font-size="14.00">186: CALLER</text>
<text text-anchor="start" x="150" y="-1854.2" font-family="arial" font-size="14.00">187: PUSH20 0xffffffffffffffffffffffffffffffffffffffff</text>
<text text-anchor="start" x="150" y="-1838.45" font-family="arial" font-size="14.00">208: AND</text>
<text text-anchor="start" x="150" y="-1822.7" font-family="arial" font-size="14.00">209: EQ</text>
<text text-anchor="start" x="150" y="-1806.95" font-family="arial" font-size="14.00">210: ISZERO</text>
<text text-anchor="start" x="150" y="-1791.2" font-family="arial" font-size="14.00">211: ISZERO</text>
<text text-anchor="start" x="150" y="-1775.45" font-family="arial" font-size="14.00">212: PUSH2 0x00dc</text>
<text text-anchor="start" x="150" y="-1759.7" font-family="arial" font-size="14.00">215: JUMPI</text>
</g>
<!-- 220 -->
<g id="node5" class="node">
<title>220</title>
<polygon fill="white" stroke="black" points="266.5,-1717.25 0,-1717.25 0,-969 266.5,-969 266.5,-1717.25"/>
<text text-anchor="start" x="8" y="-1699.95" font-family="arial" font-size="14.00">220: JUMPDEST</text>
<text text-anchor="start" x="8" y="-1684.2" font-family="arial" font-size="14.00">221: PUSH2 0x0101</text>
<text text-anchor="start" x="8" y="-1668.45" font-family="arial" font-size="14.00">224: PUSH1 0x00</text>
<text text-anchor="start" x="8" y="-1652.7" font-family="arial" font-size="14.00">226: SWAP1</text>
<text text-anchor="start" x="8" y="-1636.95" font-family="arial" font-size="14.00">227: SLOAD</text>
<text text-anchor="start" x="8" y="-1621.2" font-family="arial" font-size="14.00">228: SWAP1</text>
<text text-anchor="start" x="8" y="-1605.45" font-family="arial" font-size="14.00">229: PUSH2 0x0100</text>
<text text-anchor="start" x="8" y="-1589.7" font-family="arial" font-size="14.00">232: EXP</text>
<text text-anchor="start" x="8" y="-1573.95" font-family="arial" font-size="14.00">233: SWAP1</text>
<text text-anchor="start" x="8" y="-1558.2" font-family="arial" font-size="14.00">234: DIV</text>
<text text-anchor="start" x="8" y="-1542.45" font-family="arial" font-size="14.00">235: PUSH20 0xffffffffffffffffffffffffffffffffffffffff</text>
<text text-anchor="start" x="8" y="-1526.7" font-family="arial" font-size="14.00">256: AND</text>
<text text-anchor="start" x="8" y="-1510.95" font-family="arial" font-size="14.00">257: PUSH20 0xffffffffffffffffffffffffffffffffffffffff</text>
<text text-anchor="start" x="8" y="-1495.2" font-family="arial" font-size="14.00">278: AND</text>
<text text-anchor="start" x="8" y="-1479.45" font-family="arial" font-size="14.00">279: PUSH2 0x08fc</text>
<text text-anchor="start" x="8" y="-1463.7" font-family="arial" font-size="14.00">282: ADDRESS</text>
<text text-anchor="start" x="8" y="-1447.95" font-family="arial" font-size="14.00">283: PUSH20 0xffffffffffffffffffffffffffffffffffffffff</text>
<text text-anchor="start" x="8" y="-1432.2" font-family="arial" font-size="14.00">304: AND</text>
<text text-anchor="start" x="8" y="-1416.45" font-family="arial" font-size="14.00">305: BALANCE</text>
<text text-anchor="start" x="8" y="-1400.7" font-family="arial" font-size="14.00">306: SWAP1</text>
<text text-anchor="start" x="8" y="-1384.95" font-family="arial" font-size="14.00">307: DUP2</text>
<text text-anchor="start" x="8" y="-1369.2" font-family="arial" font-size="14.00">308: ISZERO</text>
<text text-anchor="start" x="8" y="-1353.45" font-family="arial" font-size="14.00">309: MUL</text>
<text text-anchor="start" x="8" y="-1337.7" font-family="arial" font-size="14.00">310: SWAP1</text>
<text text-anchor="start" x="8" y="-1321.95" font-family="arial" font-size="14.00">311: PUSH1 0x40</text>
<text text-anchor="start" x="8" y="-1306.2" font-family="arial" font-size="14.00">313: MLOAD</text>
<text text-anchor="start" x="8" y="-1290.45" font-family="arial" font-size="14.00">314: PUSH1 0x00</text>
<text text-anchor="start" x="8" y="-1274.7" font-family="arial" font-size="14.00">316: PUSH1 0x40</text>
<text text-anchor="start" x="8" y="-1258.95" font-family="arial" font-size="14.00">318: MLOAD</text>
<text text-anchor="start" x="8" y="-1243.2" font-family="arial" font-size="14.00">319: DUP1</text>
<text text-anchor="start" x="8" y="-1227.45" font-family="arial" font-size="14.00">320: DUP4</text>
<text text-anchor="start" x="8" y="-1211.7" font-family="arial" font-size="14.00">321: SUB</text>
<text text-anchor="start" x="8" y="-1195.95" font-family="arial" font-size="14.00">322: DUP2</text>
<text text-anchor="start" x="8" y="-1180.2" font-family="arial" font-size="14.00">323: DUP6</text>
<text text-anchor="start" x="8" y="-1164.45" font-family="arial" font-size="14.00">324: DUP9</text>
<text text-anchor="start" x="8" y="-1148.7" font-family="arial" font-size="14.00">325: DUP9</text>
<text text-anchor="start" x="8" y="-1132.95" font-family="arial" font-size="14.00">326: CALL</text>
<text text-anchor="start" x="8" y="-1117.2" font-family="arial" font-size="14.00">327: SWAP4</text>
<text text-anchor="start" x="8" y="-1101.45" font-family="arial" font-size="14.00">328: POP</text>
<text text-anchor="start" x="8" y="-1085.7" font-family="arial" font-size="14.00">329: POP</text>
<text text-anchor="start" x="8" y="-1069.95" font-family="arial" font-size="14.00">330: POP</text>
<text text-anchor="start" x="8" y="-1054.2" font-family="arial" font-size="14.00">331: POP</text>
<text text-anchor="start" x="8" y="-1038.45" font-family="arial" font-size="14.00">332: ISZERO</text>
<text text-anchor="start" x="8" y="-1022.7" font-family="arial" font-size="14.00">333: DUP1</text>
<text text-anchor="start" x="8" y="-1006.95" font-family="arial" font-size="14.00">334: ISZERO</text>
<text text-anchor="start" x="8" y="-991.2" font-family="arial" font-size="14.00">335: PUSH2 0x015c</text>
<text text-anchor="start" x="8" y="-975.45" font-family="arial" font-size="14.00">338: JUMPI</text>
</g>
<!-- 127&#45;&gt;220 -->
<g id="edge7" class="edge">
<title>127&#45;&gt;220</title>
<path fill="none" stroke="black" d="M232.45,-1753.07C230.51,-1745.06 228.53,-1736.9 226.52,-1728.64"/>
<polygon fill="black" stroke="black" points="229.99,-1728.08 224.23,-1719.18 223.19,-1729.73 229.99,-1728.08"/>
</g>
<!-- 216 -->
<g id="node20" class="node">
<title>216</title>
<polygon fill="white" stroke="crimson" points="408.25,-1405.12 284.25,-1405.12 284.25,-1281.12 408.25,-1281.12 408.25,-1405.12"/>
<polyline fill="none" stroke="crimson" points="296.25,-1405.12 284.25,-1393.12"/>
<polyline fill="none" stroke="crimson" points="284.25,-1293.12 296.25,-1281.12"/>
<polyline fill="none" stroke="crimson" points="396.25,-1281.12 408.25,-1293.12"/>
<polyline fill="none" stroke="crimson" points="408.25,-1393.12 396.25,-1405.12"/>
<text text-anchor="start" x="292.25" y="-1353.45" font-family="arial" font-size="14.00">216: PUSH1 0x00</text>
<text text-anchor="start" x="292.25" y="-1337.7" font-family="arial" font-size="14.00">218: DUP1</text>
<text text-anchor="start" x="292.25" y="-1321.95" font-family="arial" font-size="14.00">219: REVERT</text>
</g>
<!-- 127&#45;&gt;216 -->
<g id="edge15" class="edge">
<title>127&#45;&gt;216</title>
<path fill="none" stroke="black" d="M296.65,-1753.07C310.32,-1640.38 327.32,-1500.23 337.45,-1416.7"/>
<polygon fill="black" stroke="black" points="340.92,-1417.15 338.65,-1406.81 333.97,-1416.31 340.92,-1417.15"/>
</g>
<!-- 339 -->
<g id="node6" class="node">
<title>339</title>
<polygon fill="white" stroke="crimson" points="184.12,-670.38 8.38,-670.38 8.38,-494.62 184.12,-494.62 184.12,-670.38"/>
<polyline fill="none" stroke="crimson" points="20.38,-670.38 8.38,-658.38"/>
<polyline fill="none" stroke="crimson" points="8.38,-506.62 20.38,-494.62"/>
<polyline fill="none" stroke="crimson" points="172.12,-494.62 184.12,-506.62"/>
<polyline fill="none" stroke="crimson" points="184.12,-658.38 172.12,-670.38"/>
<text text-anchor="start" x="16.38" y="-624.33" font-family="arial" font-size="14.00">339: RETURNDATASIZE</text>
<text text-anchor="start" x="16.38" y="-608.58" font-family="arial" font-size="14.00">340: PUSH1 0x00</text>
<text text-anchor="start" x="16.38" y="-592.83" font-family="arial" font-size="14.00">342: DUP1</text>
<text text-anchor="start" x="16.38" y="-577.08" font-family="arial" font-size="14.00">343: RETURNDATACOPY</text>
<text text-anchor="start" x="16.38" y="-561.33" font-family="arial" font-size="14.00">344: RETURNDATASIZE</text>
<text text-anchor="start" x="16.38" y="-545.58" font-family="arial" font-size="14.00">345: PUSH1 0x00</text>
<text text-anchor="start" x="16.38" y="-529.83" font-family="arial" font-size="14.00">347: REVERT</text>
</g>
<!-- 220&#45;&gt;339 -->
<g id="edge19" class="edge">
<title>220&#45;&gt;339</title>
<path fill="none" stroke="black" d="M115.03,-968.65C109.86,-862.59 104.66,-755.92 101.05,-681.82"/>
<polygon fill="black" stroke="black" points="104.56,-682 100.58,-672.18 97.57,-682.34 104.56,-682"/>
</g>
<!-- 348 -->
<g id="node21" class="node">
<title>348</title>
<polygon fill="white" stroke="black" points="322,-610.12 202.5,-610.12 202.5,-554.88 322,-554.88 322,-610.12"/>
<text text-anchor="start" x="210.5" y="-592.83" font-family="arial" font-size="14.00">348: JUMPDEST</text>
<text text-anchor="start" x="210.5" y="-577.08" font-family="arial" font-size="14.00">349: POP</text>
<text text-anchor="start" x="210.5" y="-561.33" font-family="arial" font-size="14.00">350: JUMP</text>
</g>
<!-- 220&#45;&gt;348 -->
<g id="edge13" class="edge">
<title>220&#45;&gt;348</title>
<path fill="none" stroke="black" d="M196.76,-968.65C220.59,-828.51 244.6,-687.31 255.77,-621.59"/>
<polygon fill="black" stroke="black" points="259.17,-622.52 257.39,-612.07 252.26,-621.34 259.17,-622.52"/>
</g>
<!-- 472 -->
<g id="node18" class="node">
<title>472</title>
<polygon fill="crimson" stroke="black" points="567.38,-36 441.12,-36 441.12,0 567.38,0 567.38,-36"/>
<text text-anchor="start" x="449.12" y="-12.57" font-family="arial" font-size="14.00">472: EXIT BLOCK</text>
</g>
<!-- 339&#45;&gt;472 -->
<g id="edge10" class="edge">
<title>339&#45;&gt;472</title>
<path fill="none" stroke="black" d="M85.49,-494.38C76.72,-380.48 80.59,-182.5 193.25,-72 225.93,-39.95 348.5,-27.16 429.66,-22.14"/>
<polygon fill="black" stroke="black" points="429.54,-25.65 439.31,-21.57 429.12,-18.66 429.54,-25.65"/>
</g>
<!-- 0 -->
<g id="node7" class="node">
<title>0</title>
<polygon fill="gold" stroke="black" points="733.25,-2801.75 599.25,-2801.75 599.25,-2667.75 733.25,-2667.75 733.25,-2801.75"/>
<polyline fill="none" stroke="black" points="611.25,-2801.75 599.25,-2789.75"/>
<polyline fill="none" stroke="black" points="599.25,-2679.75 611.25,-2667.75"/>
<polyline fill="none" stroke="black" points="721.25,-2667.75 733.25,-2679.75"/>
<polyline fill="none" stroke="black" points="733.25,-2789.75 721.25,-2801.75"/>
<text text-anchor="start" x="607.25" y="-2784.45" font-family="arial" font-size="14.00">0: PUSH1 0x80</text>
<text text-anchor="start" x="607.25" y="-2768.7" font-family="arial" font-size="14.00">2: PUSH1 0x40</text>
<text text-anchor="start" x="607.25" y="-2752.95" font-family="arial" font-size="14.00">4: MSTORE</text>
<text text-anchor="start" x="607.25" y="-2737.2" font-family="arial" font-size="14.00">5: PUSH1 0x04</text>
<text text-anchor="start" x="607.25" y="-2721.45" font-family="arial" font-size="14.00">7: CALLDATASIZE</text>
<text text-anchor="start" x="607.25" y="-2705.7" font-family="arial" font-size="14.00">8: LT</text>
<text text-anchor="start" x="607.25" y="-2689.95" font-family="arial" font-size="14.00">9: PUSH2 0x004c</text>
<text text-anchor="start" x="607.25" y="-2674.2" font-family="arial" font-size="14.00">12: JUMPI</text>
</g>
<!-- 0&#45;&gt;13 -->
<g id="edge5" class="edge">
<title>0&#45;&gt;13</title>
<path fill="none" stroke="black" d="M616.3,-2667.32C609.91,-2658.82 603.24,-2649.95 596.52,-2641.01"/>
<polygon fill="black" stroke="black" points="599.5,-2639.15 590.7,-2633.26 593.91,-2643.36 599.5,-2639.15"/>
</g>
<!-- 76 -->
<g id="node8" class="node">
<title>76</title>
<polygon fill="lemonchiffon" stroke="crimson" points="874.5,-2260.25 758,-2260.25 758,-2143.75 874.5,-2143.75 874.5,-2260.25"/>
<polyline fill="none" stroke="crimson" points="770,-2260.25 758,-2248.25"/>
<polyline fill="none" stroke="crimson" points="758,-2155.75 770,-2143.75"/>
<polyline fill="none" stroke="crimson" points="862.5,-2143.75 874.5,-2155.75"/>
<polyline fill="none" stroke="crimson" points="874.5,-2248.25 862.5,-2260.25"/>
<text text-anchor="start" x="766" y="-2220.2" font-family="arial" font-size="14.00">76: JUMPDEST</text>
<text text-anchor="start" x="766" y="-2204.45" font-family="arial" font-size="14.00">77: PUSH1 0x00</text>
<text text-anchor="start" x="766" y="-2188.7" font-family="arial" font-size="14.00">79: DUP1</text>
<text text-anchor="start" x="766" y="-2172.95" font-family="arial" font-size="14.00">80: REVERT</text>
</g>
<!-- 0&#45;&gt;76 -->
<g id="edge17" class="edge">
<title>0&#45;&gt;76</title>
<path fill="none" stroke="black" d="M733.68,-2697.93C758.12,-2681.26 783.16,-2659.02 797.25,-2631.75 856.62,-2516.8 844.19,-2360.54 830.05,-2271.89"/>
<polygon fill="black" stroke="black" points="833.52,-2271.41 828.43,-2262.12 826.61,-2272.56 833.52,-2271.41"/>
</g>
<!-- 76&#45;&gt;472 -->
<g id="edge11" class="edge">
<title>76&#45;&gt;472</title>
<path fill="none" stroke="black" d="M819.6,-2143.31C820.21,-2131.55 820.8,-2119.25 821.25,-2107.75 834.56,-1768.52 840.25,-1683.62 840.25,-1344.12 840.25,-1344.12 840.25,-1344.12 840.25,-581.5 840.25,-354.55 957.91,-240.84 806.25,-72 776.75,-39.16 658.73,-26.63 579.26,-21.87"/>
<polygon fill="black" stroke="black" points="579.52,-18.38 569.34,-21.31 579.13,-25.37 579.52,-18.38"/>
</g>
<!-- 125&#45;&gt;472 -->
<g id="edge24" class="edge">
<title>125&#45;&gt;472</title>
<path fill="none" stroke="black" d="M537.05,-74C531.16,-64.11 525.31,-54.3 520.22,-45.77"/>
<polygon fill="black" stroke="black" points="523.33,-44.16 515.21,-37.37 517.32,-47.75 523.33,-44.16"/>
</g>
<!-- 351 -->
<g id="node10" class="node">
<title>351</title>
<polygon fill="white" stroke="black" points="670.75,-1481 531.75,-1481 531.75,-1205.25 670.75,-1205.25 670.75,-1481"/>
<text text-anchor="start" x="539.75" y="-1463.7" font-family="arial" font-size="14.00">351: JUMPDEST</text>
<text text-anchor="start" x="539.75" y="-1447.95" font-family="arial" font-size="14.00">352: PUSH1 0x00</text>
<text text-anchor="start" x="539.75" y="-1432.2" font-family="arial" font-size="14.00">354: DUP1</text>
<text text-anchor="start" x="539.75" y="-1416.45" font-family="arial" font-size="14.00">355: SWAP1</text>
<text text-anchor="start" x="539.75" y="-1400.7" font-family="arial" font-size="14.00">356: SLOAD</text>
<text text-anchor="start" x="539.75" y="-1384.95" font-family="arial" font-size="14.00">357: SWAP1</text>
<text text-anchor="start" x="539.75" y="-1369.2" font-family="arial" font-size="14.00">358: PUSH2 0x0100</text>
<text text-anchor="start" x="539.75" y="-1353.45" font-family="arial" font-size="14.00">361: EXP</text>
<text text-anchor="start" x="539.75" y="-1337.7" font-family="arial" font-size="14.00">362: SWAP1</text>
<text text-anchor="start" x="539.75" y="-1321.95" font-family="arial" font-size="14.00">363: DIV</text>
<text text-anchor="start" x="539.75" y="-1306.2" font-family="arial" font-size="14.00">364: PUSH1 0xff</text>
<text text-anchor="start" x="539.75" y="-1290.45" font-family="arial" font-size="14.00">366: AND</text>
<text text-anchor="start" x="539.75" y="-1274.7" font-family="arial" font-size="14.00">367: ISZERO</text>
<text text-anchor="start" x="539.75" y="-1258.95" font-family="arial" font-size="14.00">368: ISZERO</text>
<text text-anchor="start" x="539.75" y="-1243.2" font-family="arial" font-size="14.00">369: ISZERO</text>
<text text-anchor="start" x="539.75" y="-1227.45" font-family="arial" font-size="14.00">370: PUSH2 0x017a</text>
<text text-anchor="start" x="539.75" y="-1211.7" font-family="arial" font-size="14.00">373: JUMPI</text>
</g>
<!-- 351&#45;&gt;378 -->
<g id="edge2" class="edge">
<title>351&#45;&gt;378</title>
<path fill="none" stroke="black" d="M600.53,-1205.18C600.14,-1131.77 599.64,-1037.52 599.15,-944.72"/>
<polygon fill="black" stroke="black" points="602.66,-944.9 599.1,-934.92 595.66,-944.94 602.66,-944.9"/>
</g>
<!-- 374 -->
<g id="node17" class="node">
<title>374</title>
<polygon fill="white" stroke="crimson" points="774.25,-196 650.25,-196 650.25,-72 774.25,-72 774.25,-196"/>
<polyline fill="none" stroke="crimson" points="662.25,-196 650.25,-184"/>
<polyline fill="none" stroke="crimson" points="650.25,-84 662.25,-72"/>
<polyline fill="none" stroke="crimson" points="762.25,-72 774.25,-84"/>
<polyline fill="none" stroke="crimson" points="774.25,-184 762.25,-196"/>
<text text-anchor="start" x="658.25" y="-144.32" font-family="arial" font-size="14.00">374: PUSH1 0x00</text>
<text text-anchor="start" x="658.25" y="-128.57" font-family="arial" font-size="14.00">376: DUP1</text>
<text text-anchor="start" x="658.25" y="-112.83" font-family="arial" font-size="14.00">377: REVERT</text>
</g>
<!-- 351&#45;&gt;374 -->
<g id="edge16" class="edge">
<title>351&#45;&gt;374</title>
<path fill="none" stroke="black" d="M660.03,-1204.87C690.29,-1126.77 723.95,-1026.2 739.25,-933 789.7,-625.56 781.41,-540.69 739.25,-232 738.15,-223.96 736.57,-215.65 734.7,-207.43"/>
<polygon fill="black" stroke="black" points="738.12,-206.68 732.37,-197.78 731.32,-208.32 738.12,-206.68"/>
</g>
<!-- 93 -->
<g id="node16" class="node">
<title>93</title>
<polygon fill="lemonchiffon" stroke="black" points="375,-2245.38 243.5,-2245.38 243.5,-2158.62 375,-2158.62 375,-2245.38"/>
<text text-anchor="start" x="251.5" y="-2228.07" font-family="arial" font-size="14.00">93: JUMPDEST</text>
<text text-anchor="start" x="251.5" y="-2212.32" font-family="arial" font-size="14.00">94: POP</text>
<text text-anchor="start" x="251.5" y="-2196.57" font-family="arial" font-size="14.00">95: PUSH2 0x0066</text>
<text text-anchor="start" x="251.5" y="-2180.82" font-family="arial" font-size="14.00">98: PUSH2 0x007f</text>
<text text-anchor="start" x="251.5" y="-2165.07" font-family="arial" font-size="14.00">101: JUMP</text>
</g>
<!-- 81&#45;&gt;93 -->
<g id="edge14" class="edge">
<title>81&#45;&gt;93</title>
<path fill="none" stroke="black" d="M391.47,-2295.91C379.41,-2282.28 366.36,-2267.52 354.28,-2253.88"/>
<polygon fill="black" stroke="black" points="357.15,-2251.84 347.9,-2246.68 351.91,-2256.48 357.15,-2251.84"/>
</g>
<!-- 89 -->
<g id="node19" class="node">
<title>89</title>
<polygon fill="lemonchiffon" stroke="crimson" points="494.5,-192.25 378,-192.25 378,-75.75 494.5,-75.75 494.5,-192.25"/>
<polyline fill="none" stroke="crimson" points="390,-192.25 378,-180.25"/>
<polyline fill="none" stroke="crimson" points="378,-87.75 390,-75.75"/>
<polyline fill="none" stroke="crimson" points="482.5,-75.75 494.5,-87.75"/>
<polyline fill="none" stroke="crimson" points="494.5,-180.25 482.5,-192.25"/>
<text text-anchor="start" x="386" y="-144.32" font-family="arial" font-size="14.00">89: PUSH1 0x00</text>
<text text-anchor="start" x="386" y="-128.57" font-family="arial" font-size="14.00">91: DUP1</text>
<text text-anchor="start" x="386" y="-112.83" font-family="arial" font-size="14.00">92: REVERT</text>
</g>
<!-- 81&#45;&gt;89 -->
<g id="edge26" class="edge">
<title>81&#45;&gt;89</title>
<path fill="none" stroke="black" d="M436.25,-2296.03C436.25,-2217.91 436.25,-2062.99 436.25,-1931.5 436.25,-1931.5 436.25,-1931.5 436.25,-1342.12 436.25,-908.96 436.25,-388.36 436.25,-203.89"/>
<polygon fill="black" stroke="black" points="439.75,-204 436.25,-194 432.75,-204 439.75,-204"/>
</g>
<!-- 116&#45;&gt;351 -->
<g id="edge1" class="edge">
<title>116&#45;&gt;351</title>
<path fill="none" stroke="black" d="M601.25,-1886.93C601.25,-1805.32 601.25,-1623.34 601.25,-1492.58"/>
<polygon fill="black" stroke="black" points="604.75,-1492.79 601.25,-1482.79 597.75,-1492.79 604.75,-1492.79"/>
</g>
<!-- 112&#45;&gt;472 -->
<g id="edge3" class="edge">
<title>112&#45;&gt;472</title>
<path fill="none" stroke="black" d="M753.55,-1868.45C770.17,-1555.44 841.76,-142.67 783.25,-72 757.75,-41.21 652.59,-28.16 578.94,-22.73"/>
<polygon fill="black" stroke="black" points="579.59,-19.27 569.37,-22.06 579.1,-26.25 579.59,-19.27"/>
</g>
<!-- 102 -->
<g id="node14" class="node">
<title>102</title>
<polygon fill="lemonchiffon" stroke="crimson" points="322,-193.75 202.5,-193.75 202.5,-74.25 322,-74.25 322,-193.75"/>
<polyline fill="none" stroke="crimson" points="214.5,-193.75 202.5,-181.75"/>
<polyline fill="none" stroke="crimson" points="202.5,-86.25 214.5,-74.25"/>
<polyline fill="none" stroke="crimson" points="310,-74.25 322,-86.25"/>
<polyline fill="none" stroke="crimson" points="322,-181.75 310,-193.75"/>
<text text-anchor="start" x="210.5" y="-136.45" font-family="arial" font-size="14.00">102: JUMPDEST</text>
<text text-anchor="start" x="210.5" y="-120.7" font-family="arial" font-size="14.00">103: STOP</text>
</g>
<!-- 102&#45;&gt;472 -->
<g id="edge21" class="edge">
<title>102&#45;&gt;472</title>
<path fill="none" stroke="black" d="M322.32,-80.46C326.9,-77.4 331.57,-74.54 336.25,-72 365.33,-56.21 399.85,-44.29 430,-35.81"/>
<polygon fill="black" stroke="black" points="430.71,-39.24 439.44,-33.23 428.87,-32.49 430.71,-39.24"/>
</g>
<!-- 65&#45;&gt;104 -->
<g id="edge27" class="edge">
<title>65&#45;&gt;104</title>
<path fill="none" stroke="black" d="M624.25,-2303.83C624.25,-2291.63 624.25,-2278.07 624.25,-2264.96"/>
<polygon fill="black" stroke="black" points="627.75,-2265.11 624.25,-2255.11 620.75,-2265.11 627.75,-2265.11"/>
</g>
<!-- 65&#45;&gt;76 -->
<g id="edge28" class="edge">
<title>65&#45;&gt;76</title>
<path fill="none" stroke="black" d="M681.6,-2303.64C702.58,-2287.96 726.52,-2270.07 748.33,-2253.76"/>
<polygon fill="black" stroke="black" points="750.41,-2256.58 756.33,-2247.79 746.22,-2250.97 750.41,-2256.58"/>
</g>
<!-- 93&#45;&gt;127 -->
<g id="edge25" class="edge">
<title>93&#45;&gt;127</title>
<path fill="none" stroke="black" d="M303.86,-2158.3C302.4,-2146.71 300.72,-2133.37 298.92,-2119.1"/>
<polygon fill="black" stroke="black" points="302.43,-2119.01 297.71,-2109.52 295.49,-2119.88 302.43,-2119.01"/>
</g>
<!-- 374&#45;&gt;472 -->
<g id="edge8" class="edge">
<title>374&#45;&gt;472</title>
<path fill="none" stroke="black" d="M650.01,-77.6C647.1,-75.63 644.18,-73.75 641.25,-72 620,-59.28 595.16,-48.58 572.5,-40.2"/>
<polygon fill="black" stroke="black" points="573.95,-37 563.35,-36.91 571.58,-43.59 573.95,-37"/>
</g>
<!-- 89&#45;&gt;472 -->
<g id="edge18" class="edge">
<title>89&#45;&gt;472</title>
<path fill="none" stroke="black" d="M470.65,-75.33C476.8,-65.01 482.94,-54.72 488.26,-45.81"/>
<polygon fill="black" stroke="black" points="491.18,-47.75 493.29,-37.37 485.16,-44.17 491.18,-47.75"/>
</g>
<!-- 216&#45;&gt;472 -->
<g id="edge20" class="edge">
<title>216&#45;&gt;472</title>
<path fill="none" stroke="black" d="M345.48,-1281.04C342.62,-1034.31 334.44,-122.08 369.25,-72 383.39,-51.65 406.61,-39.12 429.84,-31.39"/>
<polygon fill="black" stroke="black" points="430.83,-34.75 439.39,-28.51 428.81,-28.05 430.83,-34.75"/>
</g>
<!-- 348&#45;&gt;102 -->
<g id="edge4" class="edge">
<title>348&#45;&gt;102</title>
<path fill="none" stroke="black" d="M262.25,-554.57C262.25,-486.5 262.25,-305.76 262.25,-205.13"/>
<polygon fill="black" stroke="black" points="265.75,-205.37 262.25,-195.37 258.75,-205.37 265.75,-205.37"/>
</g>
</g>
</svg>
