<?xml version="1.0" encoding="UTF-8" standalone="no"?>
<!DOCTYPE svg PUBLIC "-//W3C//DTD SVG 1.1//EN"
 "http://www.w3.org/Graphics/SVG/1.1/DTD/svg11.dtd">
<!-- Generated by graphviz version 12.2.1 (20241206.2353)
 -->
<!-- Title: G Pages: 1 -->
<svg width="1717pt" height="3152pt"
 viewBox="0.00 0.00 1717.32 3152.25" xmlns="http://www.w3.org/2000/svg" xmlns:xlink="http://www.w3.org/1999/xlink">
<g id="graph0" class="graph" transform="scale(1 1) rotate(0) translate(4 3148.25)">
<title>G</title>
<!-- 404 -->
<g id="node1" class="node">
<title>404</title>
<polygon fill="white" stroke="crimson" points="705.57,-678.5 99.07,-678.5 99.07,-72 705.57,-72 705.57,-678.5"/>
<polyline fill="none" stroke="crimson" points="111.07,-678.5 99.07,-666.5"/>
<polyline fill="none" stroke="crimson" points="99.07,-84 111.07,-72"/>
<polyline fill="none" stroke="crimson" points="693.57,-72 705.57,-84"/>
<polyline fill="none" stroke="crimson" points="705.57,-666.5 693.57,-678.5"/>
<text text-anchor="start" x="107.07" y="-661.2" font-family="arial" font-size="14.00">404: PUSH1 0x40</text>
<text text-anchor="start" x="107.07" y="-645.45" font-family="arial" font-size="14.00">406: MLOAD</text>
<text text-anchor="start" x="107.07" y="-629.7" font-family="arial" font-size="14.00">407: PUSH32 0x08c379a000000000000000000000000000000000000000000000000000000000</text>
<text text-anchor="start" x="107.07" y="-613.95" font-family="arial" font-size="14.00">440: DUP2</text>
<text text-anchor="start" x="107.07" y="-598.2" font-family="arial" font-size="14.00">441: MSTORE</text>
<text text-anchor="start" x="107.07" y="-582.45" font-family="arial" font-size="14.00">442: PUSH1 0x04</text>
<text text-anchor="start" x="107.07" y="-566.7" font-family="arial" font-size="14.00">444: ADD</text>
<text text-anchor="start" x="107.07" y="-550.95" font-family="arial" font-size="14.00">445: DUP1</text>
<text text-anchor="start" x="107.07" y="-535.2" font-family="arial" font-size="14.00">446: DUP1</text>
<text text-anchor="start" x="107.07" y="-519.45" font-family="arial" font-size="14.00">447: PUSH1 0x20</text>
<text text-anchor="start" x="107.07" y="-503.7" font-family="arial" font-size="14.00">449: ADD</text>
<text text-anchor="start" x="107.07" y="-487.95" font-family="arial" font-size="14.00">450: DUP3</text>
<text text-anchor="start" x="107.07" y="-472.2" font-family="arial" font-size="14.00">451: DUP2</text>
<text text-anchor="start" x="107.07" y="-456.45" font-family="arial" font-size="14.00">452: SUB</text>
<text text-anchor="start" x="107.07" y="-440.7" font-family="arial" font-size="14.00">453: DUP3</text>
<text text-anchor="start" x="107.07" y="-424.95" font-family="arial" font-size="14.00">454: MSTORE</text>
<text text-anchor="start" x="107.07" y="-409.2" font-family="arial" font-size="14.00">455: PUSH1 0x13</text>
<text text-anchor="start" x="107.07" y="-393.45" font-family="arial" font-size="14.00">457: DUP2</text>
<text text-anchor="start" x="107.07" y="-377.7" font-family="arial" font-size="14.00">458: MSTORE</text>
<text text-anchor="start" x="107.07" y="-361.95" font-family="arial" font-size="14.00">459: PUSH1 0x20</text>
<text text-anchor="start" x="107.07" y="-346.2" font-family="arial" font-size="14.00">461: ADD</text>
<text text-anchor="start" x="107.07" y="-330.45" font-family="arial" font-size="14.00">462: DUP1</text>
<text text-anchor="start" x="107.07" y="-314.7" font-family="arial" font-size="14.00">463: PUSH32 0x416c726561647920696e697469616c697a656400000000000000000000000000</text>
<text text-anchor="start" x="107.07" y="-298.95" font-family="arial" font-size="14.00">496: DUP2</text>
<text text-anchor="start" x="107.07" y="-283.2" font-family="arial" font-size="14.00">497: MSTORE</text>
<text text-anchor="start" x="107.07" y="-267.45" font-family="arial" font-size="14.00">498: POP</text>
<text text-anchor="start" x="107.07" y="-251.7" font-family="arial" font-size="14.00">499: PUSH1 0x20</text>
<text text-anchor="start" x="107.07" y="-235.95" font-family="arial" font-size="14.00">501: ADD</text>
<text text-anchor="start" x="107.07" y="-220.2" font-family="arial" font-size="14.00">502: SWAP2</text>
<text text-anchor="start" x="107.07" y="-204.45" font-family="arial" font-size="14.00">503: POP</text>
<text text-anchor="start" x="107.07" y="-188.7" font-family="arial" font-size="14.00">504: POP</text>
<text text-anchor="start" x="107.07" y="-172.95" font-family="arial" font-size="14.00">505: PUSH1 0x40</text>
<text text-anchor="start" x="107.07" y="-157.2" font-family="arial" font-size="14.00">507: MLOAD</text>
<text text-anchor="start" x="107.07" y="-141.45" font-family="arial" font-size="14.00">508: DUP1</text>
<text text-anchor="start" x="107.07" y="-125.7" font-family="arial" font-size="14.00">509: SWAP2</text>
<text text-anchor="start" x="107.07" y="-109.95" font-family="arial" font-size="14.00">510: SUB</text>
<text text-anchor="start" x="107.07" y="-94.2" font-family="arial" font-size="14.00">511: SWAP1</text>
<text text-anchor="start" x="107.07" y="-78.45" font-family="arial" font-size="14.00">512: REVERT</text>
</g>
<!-- 607 -->
<g id="node18" class="node">
<title>607</title>
<polygon fill="crimson" stroke="black" points="926.45,-36 800.2,-36 800.2,0 926.45,0 926.45,-36"/>
<text text-anchor="start" x="808.2" y="-12.57" font-family="arial" font-size="14.00">607: EXIT BLOCK</text>
</g>
<!-- 404&#45;&gt;607 -->
<g id="edge9" class="edge">
<title>404&#45;&gt;607</title>
<path fill="none" stroke="black" d="M705.69,-77.46C708.56,-75.61 711.44,-73.79 714.32,-72 737.08,-57.87 764.13,-46.81 788.9,-38.54"/>
<polygon fill="black" stroke="black" points="789.84,-41.91 798.28,-35.51 787.69,-35.25 789.84,-41.91"/>
</g>
<!-- 43 -->
<g id="node2" class="node">
<title>43</title>
<polygon fill="lemonchiffon" stroke="black" points="749.45,-2634.25 593.2,-2634.25 593.2,-2547.5 749.45,-2547.5 749.45,-2634.25"/>
<text text-anchor="start" x="601.2" y="-2616.95" font-family="arial" font-size="14.00">43: DUP1</text>
<text text-anchor="start" x="601.2" y="-2601.2" font-family="arial" font-size="14.00">44: PUSH4 0x8129fc1c</text>
<text text-anchor="start" x="601.2" y="-2585.45" font-family="arial" font-size="14.00">49: EQ</text>
<text text-anchor="start" x="601.2" y="-2569.7" font-family="arial" font-size="14.00">50: PUSH2 0x0045</text>
<text text-anchor="start" x="601.2" y="-2553.95" font-family="arial" font-size="14.00">53: JUMPI</text>
</g>
<!-- 69 -->
<g id="node6" class="node">
<title>69</title>
<polygon fill="lemonchiffon" stroke="black" points="737.07,-2385.5 605.57,-2385.5 605.57,-2314.5 737.07,-2314.5 737.07,-2385.5"/>
<text text-anchor="start" x="613.57" y="-2368.2" font-family="arial" font-size="14.00">69: JUMPDEST</text>
<text text-anchor="start" x="613.57" y="-2352.45" font-family="arial" font-size="14.00">70: PUSH2 0x004d</text>
<text text-anchor="start" x="613.57" y="-2336.7" font-family="arial" font-size="14.00">73: PUSH2 0x017f</text>
<text text-anchor="start" x="613.57" y="-2320.95" font-family="arial" font-size="14.00">76: JUMP</text>
</g>
<!-- 43&#45;&gt;69 -->
<g id="edge4" class="edge">
<title>43&#45;&gt;69</title>
<path fill="none" stroke="black" d="M671.32,-2547.17C671.32,-2505.01 671.32,-2440.72 671.32,-2397.34"/>
<polygon fill="black" stroke="black" points="674.82,-2397.48 671.32,-2387.48 667.82,-2397.48 674.82,-2397.48"/>
</g>
<!-- 54 -->
<g id="node9" class="node">
<title>54</title>
<polygon fill="lemonchiffon" stroke="crimson" points="587.57,-2408.25 471.07,-2408.25 471.07,-2291.75 587.57,-2291.75 587.57,-2408.25"/>
<polyline fill="none" stroke="crimson" points="483.07,-2408.25 471.07,-2396.25"/>
<polyline fill="none" stroke="crimson" points="471.07,-2303.75 483.07,-2291.75"/>
<polyline fill="none" stroke="crimson" points="575.57,-2291.75 587.57,-2303.75"/>
<polyline fill="none" stroke="crimson" points="587.57,-2396.25 575.57,-2408.25"/>
<text text-anchor="start" x="479.07" y="-2368.2" font-family="arial" font-size="14.00">54: JUMPDEST</text>
<text text-anchor="start" x="479.07" y="-2352.45" font-family="arial" font-size="14.00">55: PUSH1 0x00</text>
<text text-anchor="start" x="479.07" y="-2336.7" font-family="arial" font-size="14.00">57: DUP1</text>
<text text-anchor="start" x="479.07" y="-2320.95" font-family="arial" font-size="14.00">58: REVERT</text>
</g>
<!-- 43&#45;&gt;54 -->
<g id="edge17" class="edge">
<title>43&#45;&gt;54</title>
<path fill="none" stroke="black" d="M625.02,-2547.14C614.73,-2536.18 604.47,-2523.95 596.32,-2511.5 577.77,-2483.15 562.61,-2448.81 551.43,-2419.18"/>
<polygon fill="black" stroke="black" points="554.76,-2418.09 548.02,-2409.92 548.19,-2420.52 554.76,-2418.09"/>
</g>
<!-- 275 -->
<g id="node3" class="node">
<title>275</title>
<polygon fill="white" stroke="black" points="1115.57,-2152.5 849.07,-2152.5 849.07,-1451.5 1115.57,-1451.5 1115.57,-2152.5"/>
<text text-anchor="start" x="857.07" y="-2135.2" font-family="arial" font-size="14.00">275: JUMPDEST</text>
<text text-anchor="start" x="857.07" y="-2119.45" font-family="arial" font-size="14.00">276: PUSH2 0x0101</text>
<text text-anchor="start" x="857.07" y="-2103.7" font-family="arial" font-size="14.00">279: PUSH1 0x00</text>
<text text-anchor="start" x="857.07" y="-2087.95" font-family="arial" font-size="14.00">281: SWAP1</text>
<text text-anchor="start" x="857.07" y="-2072.2" font-family="arial" font-size="14.00">282: SLOAD</text>
<text text-anchor="start" x="857.07" y="-2056.45" font-family="arial" font-size="14.00">283: SWAP1</text>
<text text-anchor="start" x="857.07" y="-2040.7" font-family="arial" font-size="14.00">284: PUSH2 0x0100</text>
<text text-anchor="start" x="857.07" y="-2024.95" font-family="arial" font-size="14.00">287: EXP</text>
<text text-anchor="start" x="857.07" y="-2009.2" font-family="arial" font-size="14.00">288: SWAP1</text>
<text text-anchor="start" x="857.07" y="-1993.45" font-family="arial" font-size="14.00">289: DIV</text>
<text text-anchor="start" x="857.07" y="-1977.7" font-family="arial" font-size="14.00">290: PUSH20 0xffffffffffffffffffffffffffffffffffffffff</text>
<text text-anchor="start" x="857.07" y="-1961.95" font-family="arial" font-size="14.00">311: AND</text>
<text text-anchor="start" x="857.07" y="-1946.2" font-family="arial" font-size="14.00">312: PUSH20 0xffffffffffffffffffffffffffffffffffffffff</text>
<text text-anchor="start" x="857.07" y="-1930.45" font-family="arial" font-size="14.00">333: AND</text>
<text text-anchor="start" x="857.07" y="-1914.7" font-family="arial" font-size="14.00">334: PUSH2 0x08fc</text>
<text text-anchor="start" x="857.07" y="-1898.95" font-family="arial" font-size="14.00">337: SELFBALANCE</text>
<text text-anchor="start" x="857.07" y="-1883.2" font-family="arial" font-size="14.00">338: SWAP1</text>
<text text-anchor="start" x="857.07" y="-1867.45" font-family="arial" font-size="14.00">339: DUP2</text>
<text text-anchor="start" x="857.07" y="-1851.7" font-family="arial" font-size="14.00">340: ISZERO</text>
<text text-anchor="start" x="857.07" y="-1835.95" font-family="arial" font-size="14.00">341: MUL</text>
<text text-anchor="start" x="857.07" y="-1820.2" font-family="arial" font-size="14.00">342: SWAP1</text>
<text text-anchor="start" x="857.07" y="-1804.45" font-family="arial" font-size="14.00">343: PUSH1 0x40</text>
<text text-anchor="start" x="857.07" y="-1788.7" font-family="arial" font-size="14.00">345: MLOAD</text>
<text text-anchor="start" x="857.07" y="-1772.95" font-family="arial" font-size="14.00">346: PUSH1 0x00</text>
<text text-anchor="start" x="857.07" y="-1757.2" font-family="arial" font-size="14.00">348: PUSH1 0x40</text>
<text text-anchor="start" x="857.07" y="-1741.45" font-family="arial" font-size="14.00">350: MLOAD</text>
<text text-anchor="start" x="857.07" y="-1725.7" font-family="arial" font-size="14.00">351: DUP1</text>
<text text-anchor="start" x="857.07" y="-1709.95" font-family="arial" font-size="14.00">352: DUP4</text>
<text text-anchor="start" x="857.07" y="-1694.2" font-family="arial" font-size="14.00">353: SUB</text>
<text text-anchor="start" x="857.07" y="-1678.45" font-family="arial" font-size="14.00">354: DUP2</text>
<text text-anchor="start" x="857.07" y="-1662.7" font-family="arial" font-size="14.00">355: DUP6</text>
<text text-anchor="start" x="857.07" y="-1646.95" font-family="arial" font-size="14.00">356: DUP9</text>
<text text-anchor="start" x="857.07" y="-1631.2" font-family="arial" font-size="14.00">357: DUP9</text>
<text text-anchor="start" x="857.07" y="-1615.45" font-family="arial" font-size="14.00">358: CALL</text>
<text text-anchor="start" x="857.07" y="-1599.7" font-family="arial" font-size="14.00">359: SWAP4</text>
<text text-anchor="start" x="857.07" y="-1583.95" font-family="arial" font-size="14.00">360: POP</text>
<text text-anchor="start" x="857.07" y="-1568.2" font-family="arial" font-size="14.00">361: POP</text>
<text text-anchor="start" x="857.07" y="-1552.45" font-family="arial" font-size="14.00">362: POP</text>
<text text-anchor="start" x="857.07" y="-1536.7" font-family="arial" font-size="14.00">363: POP</text>
<text text-anchor="start" x="857.07" y="-1520.95" font-family="arial" font-size="14.00">364: ISZERO</text>
<text text-anchor="start" x="857.07" y="-1505.2" font-family="arial" font-size="14.00">365: DUP1</text>
<text text-anchor="start" x="857.07" y="-1489.45" font-family="arial" font-size="14.00">366: ISZERO</text>
<text text-anchor="start" x="857.07" y="-1473.7" font-family="arial" font-size="14.00">367: PUSH2 0x017c</text>
<text text-anchor="start" x="857.07" y="-1457.95" font-family="arial" font-size="14.00">370: JUMPI</text>
</g>
<!-- 371 -->
<g id="node5" class="node">
<title>371</title>
<polygon fill="white" stroke="crimson" points="951.2,-1152.88 775.45,-1152.88 775.45,-977.12 951.2,-977.12 951.2,-1152.88"/>
<polyline fill="none" stroke="crimson" points="787.45,-1152.88 775.45,-1140.88"/>
<polyline fill="none" stroke="crimson" points="775.45,-989.12 787.45,-977.12"/>
<polyline fill="none" stroke="crimson" points="939.2,-977.12 951.2,-989.12"/>
<polyline fill="none" stroke="crimson" points="951.2,-1140.88 939.2,-1152.88"/>
<text text-anchor="start" x="783.45" y="-1106.83" font-family="arial" font-size="14.00">371: RETURNDATASIZE</text>
<text text-anchor="start" x="783.45" y="-1091.08" font-family="arial" font-size="14.00">372: PUSH1 0x00</text>
<text text-anchor="start" x="783.45" y="-1075.33" font-family="arial" font-size="14.00">374: DUP1</text>
<text text-anchor="start" x="783.45" y="-1059.58" font-family="arial" font-size="14.00">375: RETURNDATACOPY</text>
<text text-anchor="start" x="783.45" y="-1043.83" font-family="arial" font-size="14.00">376: RETURNDATASIZE</text>
<text text-anchor="start" x="783.45" y="-1028.08" font-family="arial" font-size="14.00">377: PUSH1 0x00</text>
<text text-anchor="start" x="783.45" y="-1012.33" font-family="arial" font-size="14.00">379: REVERT</text>
</g>
<!-- 275&#45;&gt;371 -->
<g id="edge3" class="edge">
<title>275&#45;&gt;371</title>
<path fill="none" stroke="black" d="M925.7,-1451.26C908.66,-1346.01 891.3,-1238.82 879.24,-1164.31"/>
<polygon fill="black" stroke="black" points="882.72,-1163.91 877.67,-1154.6 875.81,-1165.03 882.72,-1163.91"/>
</g>
<!-- 380 -->
<g id="node16" class="node">
<title>380</title>
<polygon fill="white" stroke="black" points="1089.07,-1092.62 969.57,-1092.62 969.57,-1037.38 1089.07,-1037.38 1089.07,-1092.62"/>
<text text-anchor="start" x="977.57" y="-1075.33" font-family="arial" font-size="14.00">380: JUMPDEST</text>
<text text-anchor="start" x="977.57" y="-1059.58" font-family="arial" font-size="14.00">381: POP</text>
<text text-anchor="start" x="977.57" y="-1043.83" font-family="arial" font-size="14.00">382: JUMP</text>
</g>
<!-- 275&#45;&gt;380 -->
<g id="edge22" class="edge">
<title>275&#45;&gt;380</title>
<path fill="none" stroke="black" d="M1004.69,-1451.26C1013.55,-1312.6 1022.64,-1170.57 1026.87,-1104.35"/>
<polygon fill="black" stroke="black" points="1030.36,-1104.6 1027.51,-1094.4 1023.38,-1104.15 1030.36,-1104.6"/>
</g>
<!-- 16 -->
<g id="node4" class="node">
<title>16</title>
<polygon fill="lemonchiffon" stroke="black" points="881.7,-2974.25 744.95,-2974.25 744.95,-2856 881.7,-2856 881.7,-2974.25"/>
<text text-anchor="start" x="752.95" y="-2956.95" font-family="arial" font-size="14.00">16: JUMPDEST</text>
<text text-anchor="start" x="752.95" y="-2941.2" font-family="arial" font-size="14.00">17: POP</text>
<text text-anchor="start" x="752.95" y="-2925.45" font-family="arial" font-size="14.00">18: PUSH1 0x04</text>
<text text-anchor="start" x="752.95" y="-2909.7" font-family="arial" font-size="14.00">20: CALLDATASIZE</text>
<text text-anchor="start" x="752.95" y="-2893.95" font-family="arial" font-size="14.00">21: LT</text>
<text text-anchor="start" x="752.95" y="-2878.2" font-family="arial" font-size="14.00">22: PUSH2 0x0036</text>
<text text-anchor="start" x="752.95" y="-2862.45" font-family="arial" font-size="14.00">25: JUMPI</text>
</g>
<!-- 16&#45;&gt;54 -->
<g id="edge7" class="edge">
<title>16&#45;&gt;54</title>
<path fill="none" stroke="black" d="M749.49,-2855.66C696.35,-2803.1 623.3,-2721.01 584.32,-2634.25 553.34,-2565.28 539.77,-2479.17 533.85,-2420.11"/>
<polygon fill="black" stroke="black" points="537.34,-2419.81 532.91,-2410.18 530.37,-2420.47 537.34,-2419.81"/>
</g>
<!-- 26 -->
<g id="node10" class="node">
<title>26</title>
<polygon fill="lemonchiffon" stroke="black" points="891.45,-2820 735.2,-2820 735.2,-2670.25 891.45,-2670.25 891.45,-2820"/>
<text text-anchor="start" x="743.2" y="-2802.7" font-family="arial" font-size="14.00">26: PUSH1 0x00</text>
<text text-anchor="start" x="743.2" y="-2786.95" font-family="arial" font-size="14.00">28: CALLDATALOAD</text>
<text text-anchor="start" x="743.2" y="-2771.2" font-family="arial" font-size="14.00">29: PUSH1 0xe0</text>
<text text-anchor="start" x="743.2" y="-2755.45" font-family="arial" font-size="14.00">31: SHR</text>
<text text-anchor="start" x="743.2" y="-2739.7" font-family="arial" font-size="14.00">32: DUP1</text>
<text text-anchor="start" x="743.2" y="-2723.95" font-family="arial" font-size="14.00">33: PUSH4 0x3ccfd60b</text>
<text text-anchor="start" x="743.2" y="-2708.2" font-family="arial" font-size="14.00">38: EQ</text>
<text text-anchor="start" x="743.2" y="-2692.45" font-family="arial" font-size="14.00">39: PUSH2 0x003b</text>
<text text-anchor="start" x="743.2" y="-2676.7" font-family="arial" font-size="14.00">42: JUMPI</text>
</g>
<!-- 16&#45;&gt;26 -->
<g id="edge16" class="edge">
<title>16&#45;&gt;26</title>
<path fill="none" stroke="black" d="M813.32,-2855.84C813.32,-2848.04 813.32,-2839.92 813.32,-2831.78"/>
<polygon fill="black" stroke="black" points="816.82,-2831.8 813.32,-2821.8 809.82,-2831.8 816.82,-2831.8"/>
</g>
<!-- 371&#45;&gt;607 -->
<g id="edge20" class="edge">
<title>371&#45;&gt;607</title>
<path fill="none" stroke="black" d="M863.32,-976.7C863.32,-755.74 863.32,-182.32 863.32,-47.62"/>
<polygon fill="black" stroke="black" points="866.82,-47.83 863.32,-37.83 859.82,-47.83 866.82,-47.83"/>
</g>
<!-- 383 -->
<g id="node11" class="node">
<title>383</title>
<polygon fill="white" stroke="black" points="693.82,-1924.12 554.82,-1924.12 554.82,-1679.88 693.82,-1679.88 693.82,-1924.12"/>
<text text-anchor="start" x="562.82" y="-1906.83" font-family="arial" font-size="14.00">383: JUMPDEST</text>
<text text-anchor="start" x="562.82" y="-1891.08" font-family="arial" font-size="14.00">384: PUSH1 0x00</text>
<text text-anchor="start" x="562.82" y="-1875.33" font-family="arial" font-size="14.00">386: DUP1</text>
<text text-anchor="start" x="562.82" y="-1859.58" font-family="arial" font-size="14.00">387: SWAP1</text>
<text text-anchor="start" x="562.82" y="-1843.83" font-family="arial" font-size="14.00">388: SLOAD</text>
<text text-anchor="start" x="562.82" y="-1828.08" font-family="arial" font-size="14.00">389: SWAP1</text>
<text text-anchor="start" x="562.82" y="-1812.33" font-family="arial" font-size="14.00">390: PUSH2 0x0100</text>
<text text-anchor="start" x="562.82" y="-1796.58" font-family="arial" font-size="14.00">393: EXP</text>
<text text-anchor="start" x="562.82" y="-1780.83" font-family="arial" font-size="14.00">394: SWAP1</text>
<text text-anchor="start" x="562.82" y="-1765.08" font-family="arial" font-size="14.00">395: DIV</text>
<text text-anchor="start" x="562.82" y="-1749.33" font-family="arial" font-size="14.00">396: PUSH1 0xff</text>
<text text-anchor="start" x="562.82" y="-1733.58" font-family="arial" font-size="14.00">398: AND</text>
<text text-anchor="start" x="562.82" y="-1717.83" font-family="arial" font-size="14.00">399: ISZERO</text>
<text text-anchor="start" x="562.82" y="-1702.08" font-family="arial" font-size="14.00">400: PUSH2 0x0201</text>
<text text-anchor="start" x="562.82" y="-1686.33" font-family="arial" font-size="14.00">403: JUMPI</text>
</g>
<!-- 69&#45;&gt;383 -->
<g id="edge23" class="edge">
<title>69&#45;&gt;383</title>
<path fill="none" stroke="black" d="M668.31,-2314.01C661.88,-2239.25 646.49,-2060.55 635.74,-1935.66"/>
<polygon fill="black" stroke="black" points="639.26,-1935.68 634.91,-1926.01 632.28,-1936.28 639.26,-1935.68"/>
</g>
<!-- 59 -->
<g id="node7" class="node">
<title>59</title>
<polygon fill="lemonchiffon" stroke="black" points="1021.07,-2626.38 889.57,-2626.38 889.57,-2555.38 1021.07,-2555.38 1021.07,-2626.38"/>
<text text-anchor="start" x="897.57" y="-2609.07" font-family="arial" font-size="14.00">59: JUMPDEST</text>
<text text-anchor="start" x="897.57" y="-2593.32" font-family="arial" font-size="14.00">60: PUSH2 0x0043</text>
<text text-anchor="start" x="897.57" y="-2577.57" font-family="arial" font-size="14.00">63: PUSH2 0x004f</text>
<text text-anchor="start" x="897.57" y="-2561.82" font-family="arial" font-size="14.00">66: JUMP</text>
</g>
<!-- 79 -->
<g id="node17" class="node">
<title>79</title>
<polygon fill="white" stroke="black" points="1115.57,-2511.5 849.07,-2511.5 849.07,-2188.5 1115.57,-2188.5 1115.57,-2511.5"/>
<text text-anchor="start" x="857.07" y="-2494.2" font-family="arial" font-size="14.00">79: JUMPDEST</text>
<text text-anchor="start" x="857.07" y="-2478.45" font-family="arial" font-size="14.00">80: PUSH2 0x0101</text>
<text text-anchor="start" x="857.07" y="-2462.7" font-family="arial" font-size="14.00">83: PUSH1 0x00</text>
<text text-anchor="start" x="857.07" y="-2446.95" font-family="arial" font-size="14.00">85: SWAP1</text>
<text text-anchor="start" x="857.07" y="-2431.2" font-family="arial" font-size="14.00">86: SLOAD</text>
<text text-anchor="start" x="857.07" y="-2415.45" font-family="arial" font-size="14.00">87: SWAP1</text>
<text text-anchor="start" x="857.07" y="-2399.7" font-family="arial" font-size="14.00">88: PUSH2 0x0100</text>
<text text-anchor="start" x="857.07" y="-2383.95" font-family="arial" font-size="14.00">91: EXP</text>
<text text-anchor="start" x="857.07" y="-2368.2" font-family="arial" font-size="14.00">92: SWAP1</text>
<text text-anchor="start" x="857.07" y="-2352.45" font-family="arial" font-size="14.00">93: DIV</text>
<text text-anchor="start" x="857.07" y="-2336.7" font-family="arial" font-size="14.00">94: PUSH20 0xffffffffffffffffffffffffffffffffffffffff</text>
<text text-anchor="start" x="857.07" y="-2320.95" font-family="arial" font-size="14.00">115: AND</text>
<text text-anchor="start" x="857.07" y="-2305.2" font-family="arial" font-size="14.00">116: PUSH20 0xffffffffffffffffffffffffffffffffffffffff</text>
<text text-anchor="start" x="857.07" y="-2289.45" font-family="arial" font-size="14.00">137: AND</text>
<text text-anchor="start" x="857.07" y="-2273.7" font-family="arial" font-size="14.00">138: CALLER</text>
<text text-anchor="start" x="857.07" y="-2257.95" font-family="arial" font-size="14.00">139: PUSH20 0xffffffffffffffffffffffffffffffffffffffff</text>
<text text-anchor="start" x="857.07" y="-2242.2" font-family="arial" font-size="14.00">160: AND</text>
<text text-anchor="start" x="857.07" y="-2226.45" font-family="arial" font-size="14.00">161: EQ</text>
<text text-anchor="start" x="857.07" y="-2210.7" font-family="arial" font-size="14.00">162: PUSH2 0x0113</text>
<text text-anchor="start" x="857.07" y="-2194.95" font-family="arial" font-size="14.00">165: JUMPI</text>
</g>
<!-- 59&#45;&gt;79 -->
<g id="edge14" class="edge">
<title>59&#45;&gt;79</title>
<path fill="none" stroke="black" d="M959.28,-2554.88C960.33,-2545.56 961.55,-2534.82 962.85,-2523.25"/>
<polygon fill="black" stroke="black" points="966.32,-2523.77 963.96,-2513.44 959.36,-2522.98 966.32,-2523.77"/>
</g>
<!-- 12 -->
<g id="node8" class="node">
<title>12</title>
<polygon fill="lemonchiffon" stroke="crimson" points="1369.57,-2803.38 1253.07,-2803.38 1253.07,-2686.88 1369.57,-2686.88 1369.57,-2803.38"/>
<polyline fill="none" stroke="crimson" points="1265.07,-2803.38 1253.07,-2791.38"/>
<polyline fill="none" stroke="crimson" points="1253.07,-2698.88 1265.07,-2686.88"/>
<polyline fill="none" stroke="crimson" points="1357.57,-2686.88 1369.57,-2698.88"/>
<polyline fill="none" stroke="crimson" points="1369.57,-2791.38 1357.57,-2803.38"/>
<text text-anchor="start" x="1261.07" y="-2755.45" font-family="arial" font-size="14.00">12: PUSH1 0x00</text>
<text text-anchor="start" x="1261.07" y="-2739.7" font-family="arial" font-size="14.00">14: DUP1</text>
<text text-anchor="start" x="1261.07" y="-2723.95" font-family="arial" font-size="14.00">15: REVERT</text>
</g>
<!-- 12&#45;&gt;607 -->
<g id="edge15" class="edge">
<title>12&#45;&gt;607</title>
<path fill="none" stroke="black" d="M1370.07,-2712.43C1468.32,-2654.65 1655.32,-2522.18 1655.32,-2351 1655.32,-2351 1655.32,-2351 1655.32,-1064 1655.32,-843.52 1788.34,-231.7 1636.32,-72 1588.85,-22.13 1122.91,-18.13 938.19,-18.53"/>
<polygon fill="black" stroke="black" points="938.21,-15.03 928.22,-18.55 938.23,-22.03 938.21,-15.03"/>
</g>
<!-- 54&#45;&gt;607 -->
<g id="edge13" class="edge">
<title>54&#45;&gt;607</title>
<path fill="none" stroke="black" d="M505.94,-2291.45C377.54,-1971.04 -224.89,-409.56 90.32,-72 137.31,-21.68 603.55,-17.95 788.39,-18.47"/>
<polygon fill="black" stroke="black" points="788.37,-21.97 798.38,-18.5 788.39,-14.97 788.37,-21.97"/>
</g>
<!-- 26&#45;&gt;43 -->
<g id="edge8" class="edge">
<title>26&#45;&gt;43</title>
<path fill="none" stroke="black" d="M743.99,-2669.78C735.45,-2660.63 726.88,-2651.44 718.78,-2642.75"/>
<polygon fill="black" stroke="black" points="721.57,-2640.62 712.19,-2635.7 716.45,-2645.4 721.57,-2640.62"/>
</g>
<!-- 26&#45;&gt;59 -->
<g id="edge21" class="edge">
<title>26&#45;&gt;59</title>
<path fill="none" stroke="black" d="M882.66,-2669.78C893.88,-2657.75 905.16,-2645.66 915.36,-2634.72"/>
<polygon fill="black" stroke="black" points="917.65,-2637.4 921.91,-2627.7 912.53,-2632.62 917.65,-2637.4"/>
</g>
<!-- 383&#45;&gt;404 -->
<g id="edge19" class="edge">
<title>383&#45;&gt;404</title>
<path fill="none" stroke="black" d="M569.71,-1679.46C538.68,-1604.84 502.17,-1506.44 482.32,-1415.5 429.97,-1175.6 410.64,-898.04 404.03,-690.15"/>
<polygon fill="black" stroke="black" points="407.53,-690.14 403.73,-680.26 400.54,-690.36 407.53,-690.14"/>
</g>
<!-- 513 -->
<g id="node15" class="node">
<title>513</title>
<polygon fill="white" stroke="black" points="757.57,-1415.5 491.07,-1415.5 491.07,-714.5 757.57,-714.5 757.57,-1415.5"/>
<text text-anchor="start" x="499.07" y="-1398.2" font-family="arial" font-size="14.00">513: JUMPDEST</text>
<text text-anchor="start" x="499.07" y="-1382.45" font-family="arial" font-size="14.00">514: PUSH1 0x01</text>
<text text-anchor="start" x="499.07" y="-1366.7" font-family="arial" font-size="14.00">516: PUSH1 0x00</text>
<text text-anchor="start" x="499.07" y="-1350.95" font-family="arial" font-size="14.00">518: DUP1</text>
<text text-anchor="start" x="499.07" y="-1335.2" font-family="arial" font-size="14.00">519: PUSH2 0x0100</text>
<text text-anchor="start" x="499.07" y="-1319.45" font-family="arial" font-size="14.00">522: EXP</text>
<text text-anchor="start" x="499.07" y="-1303.7" font-family="arial" font-size="14.00">523: DUP2</text>
<text text-anchor="start" x="499.07" y="-1287.95" font-family="arial" font-size="14.00">524: SLOAD</text>
<text text-anchor="start" x="499.07" y="-1272.2" font-family="arial" font-size="14.00">525: DUP2</text>
<text text-anchor="start" x="499.07" y="-1256.45" font-family="arial" font-size="14.00">526: PUSH1 0xff</text>
<text text-anchor="start" x="499.07" y="-1240.7" font-family="arial" font-size="14.00">528: MUL</text>
<text text-anchor="start" x="499.07" y="-1224.95" font-family="arial" font-size="14.00">529: NOT</text>
<text text-anchor="start" x="499.07" y="-1209.2" font-family="arial" font-size="14.00">530: AND</text>
<text text-anchor="start" x="499.07" y="-1193.45" font-family="arial" font-size="14.00">531: SWAP1</text>
<text text-anchor="start" x="499.07" y="-1177.7" font-family="arial" font-size="14.00">532: DUP4</text>
<text text-anchor="start" x="499.07" y="-1161.95" font-family="arial" font-size="14.00">533: ISZERO</text>
<text text-anchor="start" x="499.07" y="-1146.2" font-family="arial" font-size="14.00">534: ISZERO</text>
<text text-anchor="start" x="499.07" y="-1130.45" font-family="arial" font-size="14.00">535: MUL</text>
<text text-anchor="start" x="499.07" y="-1114.7" font-family="arial" font-size="14.00">536: OR</text>
<text text-anchor="start" x="499.07" y="-1098.95" font-family="arial" font-size="14.00">537: SWAP1</text>
<text text-anchor="start" x="499.07" y="-1083.2" font-family="arial" font-size="14.00">538: SSTORE</text>
<text text-anchor="start" x="499.07" y="-1067.45" font-family="arial" font-size="14.00">539: POP</text>
<text text-anchor="start" x="499.07" y="-1051.7" font-family="arial" font-size="14.00">540: CALLER</text>
<text text-anchor="start" x="499.07" y="-1035.95" font-family="arial" font-size="14.00">541: PUSH2 0x0101</text>
<text text-anchor="start" x="499.07" y="-1020.2" font-family="arial" font-size="14.00">544: PUSH1 0x00</text>
<text text-anchor="start" x="499.07" y="-1004.45" font-family="arial" font-size="14.00">546: PUSH2 0x0100</text>
<text text-anchor="start" x="499.07" y="-988.7" font-family="arial" font-size="14.00">549: EXP</text>
<text text-anchor="start" x="499.07" y="-972.95" font-family="arial" font-size="14.00">550: DUP2</text>
<text text-anchor="start" x="499.07" y="-957.2" font-family="arial" font-size="14.00">551: SLOAD</text>
<text text-anchor="start" x="499.07" y="-941.45" font-family="arial" font-size="14.00">552: DUP2</text>
<text text-anchor="start" x="499.07" y="-925.7" font-family="arial" font-size="14.00">553: PUSH20 0xffffffffffffffffffffffffffffffffffffffff</text>
<text text-anchor="start" x="499.07" y="-909.95" font-family="arial" font-size="14.00">574: MUL</text>
<text text-anchor="start" x="499.07" y="-894.2" font-family="arial" font-size="14.00">575: NOT</text>
<text text-anchor="start" x="499.07" y="-878.45" font-family="arial" font-size="14.00">576: AND</text>
<text text-anchor="start" x="499.07" y="-862.7" font-family="arial" font-size="14.00">577: SWAP1</text>
<text text-anchor="start" x="499.07" y="-846.95" font-family="arial" font-size="14.00">578: DUP4</text>
<text text-anchor="start" x="499.07" y="-831.2" font-family="arial" font-size="14.00">579: PUSH20 0xffffffffffffffffffffffffffffffffffffffff</text>
<text text-anchor="start" x="499.07" y="-815.45" font-family="arial" font-size="14.00">600: AND</text>
<text text-anchor="start" x="499.07" y="-799.7" font-family="arial" font-size="14.00">601: MUL</text>
<text text-anchor="start" x="499.07" y="-783.95" font-family="arial" font-size="14.00">602: OR</text>
<text text-anchor="start" x="499.07" y="-768.2" font-family="arial" font-size="14.00">603: SWAP1</text>
<text text-anchor="start" x="499.07" y="-752.45" font-family="arial" font-size="14.00">604: SSTORE</text>
<text text-anchor="start" x="499.07" y="-736.7" font-family="arial" font-size="14.00">605: POP</text>
<text text-anchor="start" x="499.07" y="-720.95" font-family="arial" font-size="14.00">606: JUMP</text>
</g>
<!-- 383&#45;&gt;513 -->
<g id="edge6" class="edge">
<title>383&#45;&gt;513</title>
<path fill="none" stroke="black" d="M624.32,-1679.63C624.32,-1609.86 624.32,-1518.19 624.32,-1427.04"/>
<polygon fill="black" stroke="black" points="627.82,-1427.16 624.32,-1417.16 620.82,-1427.16 627.82,-1427.16"/>
</g>
<!-- 67 -->
<g id="node12" class="node">
<title>67</title>
<polygon fill="lemonchiffon" stroke="crimson" points="1003.32,-431.25 891.32,-431.25 891.32,-319.25 1003.32,-319.25 1003.32,-431.25"/>
<polyline fill="none" stroke="crimson" points="903.32,-431.25 891.32,-419.25"/>
<polyline fill="none" stroke="crimson" points="891.32,-331.25 903.32,-319.25"/>
<polyline fill="none" stroke="crimson" points="991.32,-319.25 1003.32,-331.25"/>
<polyline fill="none" stroke="crimson" points="1003.32,-419.25 991.32,-431.25"/>
<text text-anchor="start" x="899.32" y="-377.7" font-family="arial" font-size="14.00">67: JUMPDEST</text>
<text text-anchor="start" x="899.32" y="-361.95" font-family="arial" font-size="14.00">68: STOP</text>
</g>
<!-- 67&#45;&gt;607 -->
<g id="edge2" class="edge">
<title>67&#45;&gt;607</title>
<path fill="none" stroke="black" d="M935.06,-318.98C921.46,-258.28 898.64,-158 877.32,-72 875.32,-63.93 873.06,-55.2 870.94,-47.2"/>
<polygon fill="black" stroke="black" points="874.35,-46.37 868.39,-37.61 867.58,-48.18 874.35,-46.37"/>
</g>
<!-- 0 -->
<g id="node13" class="node">
<title>0</title>
<polygon fill="gold" stroke="black" points="928.32,-3144.25 794.32,-3144.25 794.32,-3010.25 928.32,-3010.25 928.32,-3144.25"/>
<polyline fill="none" stroke="black" points="806.32,-3144.25 794.32,-3132.25"/>
<polyline fill="none" stroke="black" points="794.32,-3022.25 806.32,-3010.25"/>
<polyline fill="none" stroke="black" points="916.32,-3010.25 928.32,-3022.25"/>
<polyline fill="none" stroke="black" points="928.32,-3132.25 916.32,-3144.25"/>
<text text-anchor="start" x="802.32" y="-3126.95" font-family="arial" font-size="14.00">0: PUSH1 0x80</text>
<text text-anchor="start" x="802.32" y="-3111.2" font-family="arial" font-size="14.00">2: PUSH1 0x40</text>
<text text-anchor="start" x="802.32" y="-3095.45" font-family="arial" font-size="14.00">4: MSTORE</text>
<text text-anchor="start" x="802.32" y="-3079.7" font-family="arial" font-size="14.00">5: CALLVALUE</text>
<text text-anchor="start" x="802.32" y="-3063.95" font-family="arial" font-size="14.00">6: DUP1</text>
<text text-anchor="start" x="802.32" y="-3048.2" font-family="arial" font-size="14.00">7: ISZERO</text>
<text text-anchor="start" x="802.32" y="-3032.45" font-family="arial" font-size="14.00">8: PUSH2 0x0010</text>
<text text-anchor="start" x="802.32" y="-3016.7" font-family="arial" font-size="14.00">11: JUMPI</text>
</g>
<!-- 0&#45;&gt;16 -->
<g id="edge24" class="edge">
<title>0&#45;&gt;16</title>
<path fill="none" stroke="black" d="M841.52,-3010.2C839.09,-3002.08 836.6,-2993.77 834.15,-2985.61"/>
<polygon fill="black" stroke="black" points="837.51,-2984.62 831.29,-2976.05 830.81,-2986.63 837.51,-2984.62"/>
</g>
<!-- 0&#45;&gt;12 -->
<g id="edge18" class="edge">
<title>0&#45;&gt;12</title>
<path fill="none" stroke="black" d="M928.69,-3026.83C1013.62,-2964.52 1158.76,-2858.05 1243.77,-2795.68"/>
<polygon fill="black" stroke="black" points="1245.61,-2798.68 1251.6,-2789.94 1241.47,-2793.03 1245.61,-2798.68"/>
</g>
<!-- 77 -->
<g id="node14" class="node">
<title>77</title>
<polygon fill="lemonchiffon" stroke="crimson" points="835.32,-431.25 723.32,-431.25 723.32,-319.25 835.32,-319.25 835.32,-431.25"/>
<polyline fill="none" stroke="crimson" points="735.32,-431.25 723.32,-419.25"/>
<polyline fill="none" stroke="crimson" points="723.32,-331.25 735.32,-319.25"/>
<polyline fill="none" stroke="crimson" points="823.32,-319.25 835.32,-331.25"/>
<polyline fill="none" stroke="crimson" points="835.32,-419.25 823.32,-431.25"/>
<text text-anchor="start" x="731.32" y="-377.7" font-family="arial" font-size="14.00">77: JUMPDEST</text>
<text text-anchor="start" x="731.32" y="-361.95" font-family="arial" font-size="14.00">78: STOP</text>
</g>
<!-- 77&#45;&gt;607 -->
<g id="edge1" class="edge">
<title>77&#45;&gt;607</title>
<path fill="none" stroke="black" d="M791.59,-318.98C805.18,-258.28 828.01,-158 849.32,-72 851.32,-63.93 853.59,-55.2 855.7,-47.2"/>
<polygon fill="black" stroke="black" points="859.06,-48.18 858.26,-37.61 852.3,-46.37 859.06,-48.18"/>
</g>
<!-- 513&#45;&gt;77 -->
<g id="edge11" class="edge">
<title>513&#45;&gt;77</title>
<path fill="none" stroke="black" d="M706.27,-714.22C709,-702.17 711.69,-690.24 714.32,-678.5 732.48,-597.52 752.42,-504.09 765.36,-442.8"/>
<polygon fill="black" stroke="black" points="768.74,-443.73 767.38,-433.22 761.89,-442.29 768.74,-443.73"/>
</g>
<!-- 380&#45;&gt;67 -->
<g id="edge5" class="edge">
<title>380&#45;&gt;67</title>
<path fill="none" stroke="black" d="M1026.11,-1037.04C1014.25,-937.62 972.77,-589.71 955.24,-442.66"/>
<polygon fill="black" stroke="black" points="958.76,-442.6 954.1,-433.09 951.81,-443.43 958.76,-442.6"/>
</g>
<!-- 79&#45;&gt;275 -->
<g id="edge25" class="edge">
<title>79&#45;&gt;275</title>
<path fill="none" stroke="black" d="M982.32,-2188.14C982.32,-2180.33 982.32,-2172.38 982.32,-2164.31"/>
<polygon fill="black" stroke="black" points="985.82,-2164.35 982.32,-2154.35 978.82,-2164.35 985.82,-2164.35"/>
</g>
<!-- 166 -->
<g id="node19" class="node">
<title>166</title>
<polygon fill="white" stroke="crimson" points="1627.57,-678.5 1021.07,-678.5 1021.07,-72 1627.57,-72 1627.57,-678.5"/>
<polyline fill="none" stroke="crimson" points="1033.07,-678.5 1021.07,-666.5"/>
<polyline fill="none" stroke="crimson" points="1021.07,-84 1033.07,-72"/>
<polyline fill="none" stroke="crimson" points="1615.57,-72 1627.57,-84"/>
<polyline fill="none" stroke="crimson" points="1627.57,-666.5 1615.57,-678.5"/>
<text text-anchor="start" x="1029.07" y="-661.2" font-family="arial" font-size="14.00">166: PUSH1 0x40</text>
<text text-anchor="start" x="1029.07" y="-645.45" font-family="arial" font-size="14.00">168: MLOAD</text>
<text text-anchor="start" x="1029.07" y="-629.7" font-family="arial" font-size="14.00">169: PUSH32 0x08c379a000000000000000000000000000000000000000000000000000000000</text>
<text text-anchor="start" x="1029.07" y="-613.95" font-family="arial" font-size="14.00">202: DUP2</text>
<text text-anchor="start" x="1029.07" y="-598.2" font-family="arial" font-size="14.00">203: MSTORE</text>
<text text-anchor="start" x="1029.07" y="-582.45" font-family="arial" font-size="14.00">204: PUSH1 0x04</text>
<text text-anchor="start" x="1029.07" y="-566.7" font-family="arial" font-size="14.00">206: ADD</text>
<text text-anchor="start" x="1029.07" y="-550.95" font-family="arial" font-size="14.00">207: DUP1</text>
<text text-anchor="start" x="1029.07" y="-535.2" font-family="arial" font-size="14.00">208: DUP1</text>
<text text-anchor="start" x="1029.07" y="-519.45" font-family="arial" font-size="14.00">209: PUSH1 0x20</text>
<text text-anchor="start" x="1029.07" y="-503.7" font-family="arial" font-size="14.00">211: ADD</text>
<text text-anchor="start" x="1029.07" y="-487.95" font-family="arial" font-size="14.00">212: DUP3</text>
<text text-anchor="start" x="1029.07" y="-472.2" font-family="arial" font-size="14.00">213: DUP2</text>
<text text-anchor="start" x="1029.07" y="-456.45" font-family="arial" font-size="14.00">214: SUB</text>
<text text-anchor="start" x="1029.07" y="-440.7" font-family="arial" font-size="14.00">215: DUP3</text>
<text text-anchor="start" x="1029.07" y="-424.95" font-family="arial" font-size="14.00">216: MSTORE</text>
<text text-anchor="start" x="1029.07" y="-409.2" font-family="arial" font-size="14.00">217: PUSH1 0x09</text>
<text text-anchor="start" x="1029.07" y="-393.45" font-family="arial" font-size="14.00">219: DUP2</text>
<text text-anchor="start" x="1029.07" y="-377.7" font-family="arial" font-size="14.00">220: MSTORE</text>
<text text-anchor="start" x="1029.07" y="-361.95" font-family="arial" font-size="14.00">221: PUSH1 0x20</text>
<text text-anchor="start" x="1029.07" y="-346.2" font-family="arial" font-size="14.00">223: ADD</text>
<text text-anchor="start" x="1029.07" y="-330.45" font-family="arial" font-size="14.00">224: DUP1</text>
<text text-anchor="start" x="1029.07" y="-314.7" font-family="arial" font-size="14.00">225: PUSH32 0x4e6f742061646d696e0000000000000000000000000000000000000000000000</text>
<text text-anchor="start" x="1029.07" y="-298.95" font-family="arial" font-size="14.00">258: DUP2</text>
<text text-anchor="start" x="1029.07" y="-283.2" font-family="arial" font-size="14.00">259: MSTORE</text>
<text text-anchor="start" x="1029.07" y="-267.45" font-family="arial" font-size="14.00">260: POP</text>
<text text-anchor="start" x="1029.07" y="-251.7" font-family="arial" font-size="14.00">261: PUSH1 0x20</text>
<text text-anchor="start" x="1029.07" y="-235.95" font-family="arial" font-size="14.00">263: ADD</text>
<text text-anchor="start" x="1029.07" y="-220.2" font-family="arial" font-size="14.00">264: SWAP2</text>
<text text-anchor="start" x="1029.07" y="-204.45" font-family="arial" font-size="14.00">265: POP</text>
<text text-anchor="start" x="1029.07" y="-188.7" font-family="arial" font-size="14.00">266: POP</text>
<text text-anchor="start" x="1029.07" y="-172.95" font-family="arial" font-size="14.00">267: PUSH1 0x40</text>
<text text-anchor="start" x="1029.07" y="-157.2" font-family="arial" font-size="14.00">269: MLOAD</text>
<text text-anchor="start" x="1029.07" y="-141.45" font-family="arial" font-size="14.00">270: DUP1</text>
<text text-anchor="start" x="1029.07" y="-125.7" font-family="arial" font-size="14.00">271: SWAP2</text>
<text text-anchor="start" x="1029.07" y="-109.95" font-family="arial" font-size="14.00">272: SUB</text>
<text text-anchor="start" x="1029.07" y="-94.2" font-family="arial" font-size="14.00">273: SWAP1</text>
<text text-anchor="start" x="1029.07" y="-78.45" font-family="arial" font-size="14.00">274: REVERT</text>
</g>
<!-- 79&#45;&gt;166 -->
<g id="edge12" class="edge">
<title>79&#45;&gt;166</title>
<path fill="none" stroke="black" d="M1107.98,-2188.07C1114.15,-2176.38 1119.69,-2164.47 1124.32,-2152.5 1312.16,-1666.69 1339.66,-1054.36 1336.33,-690.25"/>
<polygon fill="black" stroke="black" points="1339.83,-690.23 1336.23,-680.26 1332.83,-690.3 1339.83,-690.23"/>
</g>
<!-- 166&#45;&gt;607 -->
<g id="edge10" class="edge">
<title>166&#45;&gt;607</title>
<path fill="none" stroke="black" d="M1020.96,-77.46C1018.08,-75.61 1015.21,-73.79 1012.32,-72 989.57,-57.87 962.51,-46.81 937.75,-38.54"/>
<polygon fill="black" stroke="black" points="938.95,-35.25 928.36,-35.51 936.8,-41.91 938.95,-35.25"/>
</g>
</g>
</svg>
